<svg width="277" height="65" viewBox="0 0 277 65" fill="none" xmlns="http://www.w3.org/2000/svg">
<path d="M37.3897 24.4805H25.8985V33.7733H31.4555V30.0396H37.3897C40.5784 30.0396 43.1715 32.6342 43.1715 35.8224C43.1715 39.0117 40.5773 41.6053 37.3897 41.6053H25.8985V52.3378C18.7125 50.1565 13.1501 44.2053 11.5254 36.7953H6.06421C7.85619 47.1697 15.7475 55.4812 25.8985 57.8884C27.6883 58.3125 29.5474 58.5543 31.4555 58.5906V47.1644H37.3897C43.6424 47.1644 48.7297 42.0763 48.7297 35.8224C48.7297 29.5686 43.6424 24.4805 37.3897 24.4805Z" fill="black"/>
<path d="M38.0109 6.72261C36.221 6.29958 34.3619 6.05982 32.4538 6.02466V17.6447H26.5196C20.2669 17.6447 15.1797 22.7329 15.1797 28.9867C15.1797 35.2406 20.2669 40.3287 26.5196 40.3287H38.012V31.0358H32.4549V34.7696H26.5207C23.332 34.7696 20.7389 32.1749 20.7389 28.9867C20.7389 25.7974 23.3331 23.2038 26.5207 23.2038H38.013V12.2721C45.2076 14.4491 50.7763 20.4046 52.4032 27.8199H57.8633C56.0692 17.4391 48.1693 9.12548 38.0109 6.72261Z" fill="black"/>
<path d="M167.772 51.3231C168.713 51.142 169.328 50.2324 169.147 49.2916C168.966 48.3508 168.057 47.7349 167.116 47.9161C166.175 48.0973 165.559 49.0068 165.741 49.9477C165.922 50.8885 166.831 51.5043 167.772 51.3231Z" fill="black"/>
<path d="M63.9338 45.2102V54.1131H270.853V45.2102H63.9338ZM235.747 49.0441H238.681V50.1236H235.747V49.0441ZM98.2254 52.4486C96.9075 52.4486 95.9454 51.3447 95.906 51.2978L95.8581 51.2413L96.6763 50.5381L96.7253 50.5935C96.7317 50.6009 97.4146 51.3692 98.2275 51.3692C99.4612 51.3692 99.4612 50.911 99.4612 50.6915C99.4612 50.3431 99.2684 50.1246 98.2797 50.0426L98.2414 50.0394C96.3844 49.8817 96.1074 48.9354 96.1085 48.3856C96.1095 47.3712 96.9576 46.7148 98.268 46.7148C99.3547 46.7148 100.278 47.5971 100.38 47.6972L100.433 47.7495L99.6743 48.5167L99.621 48.4645C99.4303 48.278 98.8156 47.7931 98.268 47.7931C98.0144 47.7931 97.1877 47.8358 97.1877 48.3845C97.1877 48.8022 97.9047 48.9259 98.333 48.9621L98.3692 48.9653C98.66 48.9898 99.148 49.0303 99.5859 49.2295C100.202 49.5098 100.54 50.0287 100.54 50.6904C100.538 51.3468 100.238 52.4486 98.2254 52.4486ZM135.744 47.8464H133.988V51.3713H134.727V52.4508H132.909V47.8464H131.131V46.767H132.887H133.989H135.745V47.8464H135.744ZM167.437 52.4657C165.865 52.4657 164.589 51.1902 164.589 49.6174C164.589 48.0446 165.865 46.7691 167.437 46.7691C169.01 46.7691 170.285 48.0446 170.285 49.6174C170.285 51.1902 169.01 52.4657 167.437 52.4657ZM202.452 52.4561L201.937 51.6942C201.705 51.35 201.318 51.1454 200.904 51.1454H200.006V50.066H201.4C202.019 50.066 202.523 49.562 202.523 48.9429C202.523 48.3238 202.019 47.8198 201.4 47.8198H200.248V48.5454H199.168V46.7404H201.4C202.615 46.7404 203.603 47.7282 203.603 48.9429C203.603 49.6877 203.218 50.3889 202.593 50.7938C202.68 50.8865 202.76 50.9856 202.831 51.0911L203.754 52.4582H202.452V52.4561ZM238.904 52.4326H235.747V51.3532H238.904V52.4326ZM238.904 47.8272H235.747V46.7478H238.904V47.8272Z" fill="black"/>
<path d="M187.385 10.9424H177.351V20.7648H182.908V16.5015H187.385C192.388 16.5015 196.458 20.572 196.458 25.5759C196.458 30.5798 192.388 34.6503 187.385 34.6503H181.569V40.2084H187.385C195.452 40.2084 202.016 33.6444 202.016 25.5748C202.016 17.5052 195.453 10.9424 187.385 10.9424Z" fill="black"/>
<path d="M215.017 10.9424H206.038V16.5004H209.46V40.2084H218.819V34.6493H215.017V10.9424Z" fill="black"/>
<path d="M270.853 10.9424H254.598V16.5004H270.853V10.9424Z" fill="black"/>
<path d="M270.853 34.6526H254.598V40.2106H270.853V34.6526Z" fill="black"/>
<path d="M269.702 22.7681H254.598V28.3261H269.702V22.7681Z" fill="black"/>
<path d="M75.4037 10.8933H63.9114V20.1862H69.4684V16.4524H75.4026C78.5913 16.4524 81.1845 19.0471 81.1845 22.2353C81.1845 25.4235 78.5903 28.0181 75.4026 28.0181H63.9114V40.3287H69.4684V33.5762H75.4026C81.6554 33.5762 86.7426 28.4881 86.7426 22.2342C86.7426 15.9804 81.6565 10.8933 75.4037 10.8933Z" fill="black"/>
<path d="M137.343 31.7616C140.562 29.6784 142.541 26.0725 142.541 22.2343C142.541 15.9804 137.454 10.8923 131.201 10.8923H119.709V20.1852H125.266V16.4514H131.2C134.389 16.4514 136.982 19.0461 136.982 22.2343C136.982 25.4225 134.388 28.0172 131.2 28.0172H124.02V33.5752H128.645C130.781 33.5752 132.769 34.6323 133.965 36.4022L136.615 40.3267H143.322L138.57 33.2907C138.206 32.7515 137.795 32.239 137.343 31.7616Z" fill="black"/>
<path d="M101.537 10.8518L89.585 40.3288H95.5831L103.101 21.7867L110.62 40.3288H116.617L104.664 10.8518H101.537Z" fill="black"/>
<path d="M159.137 10.8518L147.184 40.3288H153.182L160.701 21.7867L168.219 40.3288H174.216L162.264 10.8518H159.137Z" fill="black"/>
<path d="M243.386 23.7283C241.133 22.7032 238.623 22.4943 237.124 22.3686L236.935 22.3526C234.733 22.1661 231.039 21.5321 231.041 19.3807C231.045 16.5538 235.3 16.3342 236.604 16.3342C239.424 16.3342 242.589 18.8277 243.57 19.7878L243.843 20.0542L247.749 16.102L247.476 15.8324C246.953 15.3145 242.199 10.7751 236.604 10.7751C229.853 10.7751 225.489 14.1509 225.483 19.3754C225.48 22.2088 226.903 27.0816 236.466 27.8915L236.661 27.9074C241.747 28.3315 242.742 29.4536 242.742 31.2491C242.742 32.3818 242.743 34.7399 236.392 34.7399C232.208 34.7399 228.695 30.7845 228.66 30.7451L228.41 30.4584L224.199 34.0814L224.449 34.3723C224.657 34.6142 229.608 40.299 236.392 40.299C246.753 40.299 248.3 34.6291 248.3 31.2491C248.3 27.8403 246.554 25.17 243.386 23.7283Z" fill="black"/>
</svg>
